<?xml version="1.0" encoding="UTF-8"?>
<svg version="1.1" xmlns="http://www.w3.org/2000/svg" width="222" height="222">
<path d="M0 0 C2.45223303 1.11278508 3.92122601 2.45125579 5.82700443 4.35752964 C6.57294865 5.09645954 7.31889286 5.83538944 8.08744144 6.59671116 C9.30016727 7.8209026 9.30016727 7.8209026 10.53739262 9.06982517 C11.82574009 10.35269665 11.82574009 10.35269665 13.14011478 11.66148472 C15.49256453 14.00721528 17.83809196 16.35947246 20.18050194 18.715204 C22.63141549 21.17743084 25.09003358 23.63194286 27.54758549 26.08754063 C31.67181079 30.21088317 35.79001431 34.34016528 39.90458012 38.47314548 C44.66639992 43.25615367 49.43701149 48.03024979 54.21255231 52.79955572 C58.80271651 57.38403306 63.38720129 61.97414733 67.96890354 66.5670805 C69.92091092 68.52374071 71.8747997 70.47849358 73.83018589 72.431777 C76.55618236 75.1555468 79.27379518 77.88758494 81.99051762 80.62060642 C82.80709843 81.43470982 83.62367924 82.24881321 84.46500492 83.0875864 C85.19966984 83.82933613 85.93433475 84.57108585 86.69126225 85.33531284 C87.33500923 85.9811127 87.97875622 86.62691256 88.64201069 87.2922821 C90.00516605 88.90991306 90.00516605 88.90991306 90.00516605 90.90991306 C73.56071954 93.11904614 73.56071954 93.11904614 66.86127567 88.46435642 C62.68936142 85.02252608 59.04013547 81.08764744 55.3684473 77.12866306 C53.9873529 75.71205546 52.60194709 74.2996397 51.21248722 72.89123631 C47.59641268 69.20319706 44.04108008 65.46179157 40.49613285 61.70550632 C36.85693343 57.87064334 33.16217093 54.09013088 29.47196293 50.30444431 C22.26150249 42.89125102 15.1141512 35.42038229 8.00516605 27.90991306 C8.00554308 28.7707541 8.0059201 29.63159513 8.00630856 30.51852226 C8.01343503 51.49398994 7.9874437 72.46919058 7.92488766 93.44457054 C7.89542874 103.58826466 7.87705443 113.73174978 7.88504887 123.87548923 C7.89199087 132.71991726 7.87785581 141.56402163 7.83872998 150.4083702 C7.81875278 155.08866395 7.809114 159.76844993 7.82474232 164.44877148 C7.83914118 168.86083949 7.82520052 173.27194054 7.79021358 177.68388462 C7.78229354 179.29664167 7.7844236 180.90948697 7.79777431 182.52220821 C7.87193235 192.31426827 6.84960936 199.64817056 1.00516605 207.90991306 C-2.54397039 206.72686758 -2.88087831 206.07674298 -4.64111996 202.89370823 C-8.09059198 195.57151894 -7.70039917 188.07404408 -7.65425777 180.16919041 C-7.66272269 178.49284777 -7.67337215 176.81651496 -7.68602657 175.14019871 C-7.71405023 170.61600324 -7.71172316 166.09228389 -7.70373273 161.56802797 C-7.70059747 156.83008215 -7.72567181 152.09228527 -7.74768734 147.35440159 C-7.78506935 138.39446774 -7.79727187 129.43468565 -7.80031174 120.4746815 C-7.80500892 110.26900864 -7.83795338 100.06348721 -7.8732096 89.85788131 C-7.94506642 68.87524242 -7.98164846 47.89266549 -7.99483395 26.90991306 C-8.75888042 27.71170994 -9.5229269 28.51350681 -10.3101263 29.33960056 C-17.54378009 36.91904376 -24.82280837 44.45228595 -32.14771843 51.94360447 C-35.91160324 55.79592526 -39.65817926 59.66227762 -43.36861324 63.56616306 C-46.95550541 67.33884765 -50.58333391 71.06746093 -54.24227238 74.77026463 C-55.62519802 76.18441448 -56.99316741 77.61336374 -58.34488392 79.057374 C-70.05096809 91.52931561 -70.05096809 91.52931561 -79.13802338 91.85473728 C-82.47954681 91.75483909 -85.69061031 91.42323255 -88.99483395 90.90991306 C-88.47530804 86.86641895 -87.5008141 84.91402989 -84.63660336 82.03701878 C-83.91739208 81.30508305 -83.19818081 80.57314732 -82.45717525 79.81903172 C-81.6628912 79.03127354 -80.86860714 78.24351536 -80.05025387 77.43188572 C-79.21772594 76.59074223 -78.38519802 75.74959873 -77.52744198 74.88296604 C-75.24559818 72.58231908 -72.95495836 70.29092402 -70.65926433 68.00410986 C-68.74422749 66.09418438 -66.83542614 64.17808826 -64.92659265 62.26196611 C-60.42539664 57.74377715 -55.9140108 53.23594725 -51.39595699 48.73462009 C-46.73173225 44.08734002 -42.08415951 39.42387592 -37.44457072 34.75201094 C-33.46122904 30.74200965 -29.46829199 26.74174975 -25.46735173 22.74930704 C-23.077428 20.36432022 -20.69124638 17.97587329 -18.31403828 15.57820606 C-15.66367964 12.91052106 -12.99800216 10.25917052 -10.32759762 7.61157322 C-9.53938625 6.81166965 -8.75117489 6.01176609 -7.93907833 5.18762302 C-7.21140759 4.47260624 -6.48373684 3.75758945 -5.73401546 3.02090549 C-5.10480788 2.39228422 -4.4756003 1.76366295 -3.82732582 1.11599255 C-1.99483395 -0.09008694 -1.99483395 -0.09008694 0 0 Z " fill="#0A0605" transform="translate(110.99483394622803,7.090086936950684)"/>
<path d="M0 0 C0 41.91 0 83.82 0 127 C-0.66 127 -1.32 127 -2 127 C-4.55030094 121.94885942 -7.09532125 116.89510671 -9.63549805 111.83886719 C-10.50026364 110.11938953 -11.36646434 108.40063283 -12.23413086 106.68261719 C-13.48149119 104.21217257 -14.72365698 101.73917587 -15.96484375 99.265625 C-16.35341049 98.49881409 -16.74197723 97.73200317 -17.14231873 96.94195557 C-17.68276573 95.86128815 -17.68276573 95.86128815 -18.23413086 94.75878906 C-18.55167831 94.12813538 -18.86922577 93.49748169 -19.19639587 92.84771729 C-20.0534999 90.87698834 -20.6867626 89.12995293 -21 87 C-19.68962066 85.31522656 -18.35156675 83.65191491 -17 82 C-14.12987782 75.74576836 -13.58949476 70.63886623 -13.70703125 63.8125 C-13.71339851 62.39783447 -13.71339851 62.39783447 -13.71989441 60.95458984 C-13.7365643 57.96942482 -13.77419425 54.98495782 -13.8125 52 C-13.82756196 49.96485356 -13.84124771 47.92969645 -13.85351562 45.89453125 C-13.88642945 40.9294223 -13.93813001 35.96482913 -14 31 C-14.75893555 31.85754883 -15.51787109 32.71509766 -16.29980469 33.59863281 C-25.61829554 43.7566958 -25.61829554 43.7566958 -30.890625 44.171875 C-33.09765625 44.0546875 -33.09765625 44.0546875 -35.25 43.75 C-36.00667969 43.69585937 -36.76335938 43.64171875 -37.54296875 43.5859375 C-39.36718101 43.44738973 -41.18533063 43.23220888 -43 43 C-41.55662966 39.69805109 -39.76269557 37.50982507 -37.22460938 34.96582031 C-36.45040649 34.18531311 -35.67620361 33.40480591 -34.87854004 32.60064697 C-34.04205933 31.76821472 -33.20557861 30.93578247 -32.34375 30.078125 C-31.48567749 29.21813904 -30.62760498 28.35815308 -29.74353027 27.47210693 C-27.93027533 25.65749174 -26.11449519 23.84539684 -24.29638672 22.03564453 C-21.50385862 19.25384379 -18.72217542 16.46151855 -15.94140625 13.66796875 C-14.18032867 11.90821228 -12.41863106 10.14907605 -10.65625 8.390625 C-9.40152893 7.12983124 -9.40152893 7.12983124 -8.12145996 5.84356689 C-7.34725708 5.07566833 -6.5730542 4.30776978 -5.77539062 3.51660156 C-5.09303345 2.83583557 -4.41067627 2.15506958 -3.7076416 1.45367432 C-2 0 -2 0 0 0 Z " fill="#0A0605" transform="translate(95,55)"/>
<path d="M0 0 C3.56643531 1.78321765 5.30122314 3.05260905 8.03417969 5.79125977 C8.81468689 6.56869034 9.59519409 7.34612091 10.39935303 8.14710999 C11.23178528 8.98672775 12.06421753 9.82634552 12.921875 10.69140625 C13.78186096 11.55185043 14.64184692 12.41229462 15.52789307 13.29881287 C17.34241939 15.11635839 19.15451653 16.93633184 20.96435547 18.75854492 C23.74783294 21.56031869 26.53926933 24.35396817 29.33203125 27.14648438 C31.09161942 28.9109862 32.85075002 30.67594445 34.609375 32.44140625 C35.87016876 33.70386925 35.87016876 33.70386925 37.15643311 34.99183655 C37.92433167 35.76611496 38.69223022 36.54039337 39.48339844 37.33813477 C40.50454742 38.36500145 40.50454742 38.36500145 41.54632568 39.41261292 C43 41 43 41 43 42 C40.24009914 42.3311881 37.52060442 42.56351701 34.75 42.75 C33.99203125 42.85054687 33.2340625 42.95109375 32.453125 43.0546875 C27.81342102 43.2866727 25.1491432 42.35292175 21.71289062 39.27539062 C18.65905062 36.31383791 15.80642107 33.19550127 13 30 C12.90043882 35.79829005 12.82820654 41.59607242 12.78027344 47.39501953 C12.76027213 49.36385782 12.73306198 51.33263756 12.69824219 53.30126953 C12.64921469 56.14630658 12.62691618 58.99055215 12.609375 61.8359375 C12.58872986 62.70302338 12.56808472 63.57010925 12.54681396 64.46347046 C12.54421971 71.67730653 14.2062371 78.32885659 18.63690186 84.15097046 C20 86 20 86 19.97265625 88.19921875 C18.54714529 92.30400333 16.51475465 96.00394439 14.4375 99.8125 C13.5311471 101.50185113 12.6262239 103.19197001 11.72265625 104.8828125 C11.26777832 105.73262695 10.81290039 106.58244141 10.34423828 107.45800781 C8.29283177 111.33727489 6.32682434 115.25739654 4.375 119.1875 C4.03267334 119.87626221 3.69034668 120.56502441 3.33764648 121.2746582 C2.55670782 122.8489185 1.77806193 124.42431592 1 126 C0.34 126 -0.32 126 -1 126 C-0.67 84.42 -0.34 42.84 0 0 Z " fill="#0A0606" transform="translate(127,56)"/>
<path d="" fill="#282926" transform="translate(0,0)"/>
</svg>
